<?xml version="1.0" encoding="utf-8"?>
<!-- Generator: Adobe Illustrator 24.1.3, SVG Export Plug-In . SVG Version: 6.00 Build 0)  -->
<svg version="1.1" id="Layer_1" xmlns="http://www.w3.org/2000/svg" xmlns:xlink="http://www.w3.org/1999/xlink" x="0px" y="0px"
	 viewBox="0 0 256 256" style="enable-background:new 0 0 256 256;" xml:space="preserve">
<style type="text/css">
	.st0{fill:#002333;}
	.st1{fill:url(#SVGID_1_);}
	.st2{fill:none;stroke:#00E3C0;stroke-width:3;stroke-linecap:round;stroke-linejoin:round;stroke-miterlimit:10;}
</style>
<g>
	<path class="st0" d="M219.2,256H36.8C16.4,256,0,239.6,0,219.2V36.8C0,16.4,16.4,0,36.8,0H219c20.6,0,37,16.4,37,36.8V219
		C256,239.6,239.6,256,219.2,256z"/>
	
		<linearGradient id="SVGID_1_" gradientUnits="userSpaceOnUse" x1="128" y1="2" x2="128" y2="257.9995" gradientTransform="matrix(1 0 0 -1 0 258)">
		<stop  offset="0" style="stop-color:#004A52"/>
		<stop  offset="1" style="stop-color:#002333"/>
	</linearGradient>
	<path class="st1" d="M219.2,0H36.8C16.4,0,0,16.4,0,36.8V158c37.8,15.8,81.6,24.8,128.4,24.8c46.4,0,90-8.8,127.6-24.4V36.8
		C256,16.4,239.6,0,219.2,0z"/>
	<path class="st0" d="M219.2,8c16,0,28.8,13,28.8,28.8V219c0,16-13,28.8-28.8,28.8H36.8c-16,0-28.8-13-28.8-28.8V36.8
		C8,21,21,8,36.8,8H219.2z M219.2,0H36.8C16.4,0,0,16.4,0,36.8V219c0,20.6,16.4,37,36.8,37H219c20.4,0,36.8-16.4,36.8-36.8V36.8
		C256,16.4,239.6,0,219.2,0z"/>
	<g>
		<g>
			<circle class="st2" cx="161.1" cy="182.4" r="9.6"/>
			<circle class="st2" cx="97.1" cy="182.4" r="9.6"/>
			<path class="st2" d="M150.1,160h-45.7c-6.1,0-11.4-4.3-12.6-10.3L76.8,74.3c-1.2-6-6.5-10.3-12.6-10.3h-2.3"/>
			<path class="st2" d="M150.1,160l6.1,0c13.5,0,17.6-9,18.8-14l8.5-45.5c2.5-12.4-3-17.3-12-17.3H155"/>
		</g>
		<g>
			<path class="st2" d="M141.8,111.4h-19.3c-4.3,0-8.1-2.9-9.3-7l-4.2-14.6c-1.8-6.2,2.9-12.4,9.3-12.4H146c6.5,0,11.1,6.2,9.3,12.4
				l-4.2,14.6C149.9,108.5,146.1,111.4,141.8,111.4z"/>
			<line class="st2" x1="132.1" y1="101.7" x2="132.1" y2="111.4"/>
			<line class="st2" x1="132.1" y1="87.1" x2="132.1" y2="92"/>
			<line class="st2" x1="119.7" y1="89.3" x2="121.3" y2="93.9"/>
			<line class="st2" x1="144.6" y1="89.3" x2="142.9" y2="93.9"/>
		</g>
		<line class="st2" x1="109.2" y1="83.2" x2="78.6" y2="83.2"/>
	</g>
</g>
</svg>
